<svg xmlns="http://www.w3.org/2000/svg" width="400" height="400" viewBox="0 0 400 400"><rect width="100%" height="100%" fill="#0a1c25"/><path fill="#FFF" d="M92.865 200.15h7.44v9.07q-1.71 1.26-3.63 1.84-1.93.58-4.14.58-2.74 0-4.96-.85-2.23-.86-3.8-2.38-1.57-1.52-2.43-3.62-.85-2.11-.85-4.61 0-2.52.82-4.63t2.34-3.63q1.51-1.52 3.66-2.35 2.16-.84 4.84-.84 1.36 0 2.55.22 1.18.21 2.2.59 1.01.38 1.85.92.84.55 1.53 1.2l-1.19 1.89q-.28.45-.73.55-.45.1-.97-.23-.52-.29-1.03-.58-.51-.3-1.14-.52-.62-.21-1.41-.35-.78-.14-1.8-.14-1.66 0-3 .56-1.34.55-2.29 1.59-.94 1.04-1.46 2.5-.51 1.46-.51 3.25 0 1.93.55 3.44t1.55 2.55q1 1.05 2.41 1.6 1.41.55 3.15.55 1.24 0 2.22-.26.97-.27 1.9-.72v-4.06h-2.82q-.4 0-.63-.22-.22-.23-.22-.55v-2.36Zm22.51 0h7.44v9.07q-1.71 1.26-3.64 1.84-1.93.58-4.13.58-2.74 0-4.97-.85-2.22-.86-3.79-2.38-1.58-1.52-2.43-3.62-.85-2.11-.85-4.61 0-2.52.82-4.63t2.33-3.63q1.51-1.52 3.67-2.35 2.15-.84 4.83-.84 1.37 0 2.55.22 1.19.21 2.2.59 1.02.38 1.86.92.83.55 1.53 1.2l-1.19 1.89q-.28.45-.73.55-.45.1-.98-.23l-1.02-.58q-.51-.3-1.14-.52-.63-.21-1.41-.35-.78-.14-1.81-.14-1.66 0-3 .56-1.34.55-2.28 1.59-.95 1.04-1.46 2.5t-.51 3.25q0 1.93.55 3.44t1.55 2.55q1 1.05 2.41 1.6 1.41.55 3.15.55 1.24 0 2.21-.26.98-.27 1.91-.72v-4.06h-2.82q-.4 0-.63-.22-.22-.23-.22-.55v-2.36Zm21.43-2.94-.87 1.38q-.15.25-.32.35-.17.1-.44.1t-.59-.16q-.32-.15-.74-.35-.42-.19-.95-.35-.54-.15-1.26-.15-1.14 0-1.78.48-.64.48-.64 1.25 0 .52.33.87.33.34.88.61.55.26 1.25.47.7.21 1.42.46t1.42.56q.7.32 1.25.81.55.49.88 1.17.33.68.33 1.64 0 1.15-.41 2.12-.41.97-1.21 1.67-.81.71-2 1.1-1.18.4-2.73.4-.82 0-1.61-.15-.78-.15-1.5-.41t-1.33-.62q-.62-.36-1.08-.78l.88-1.45q.17-.27.41-.4.23-.14.59-.14.35 0 .67.2.32.2.74.43.41.23.98.44.57.2 1.43.2.69 0 1.17-.17.49-.16.81-.42.32-.27.47-.61.14-.35.14-.73 0-.55-.33-.91t-.88-.62q-.55-.26-1.26-.47-.71-.21-1.44-.46-.74-.25-1.44-.58-.71-.33-1.26-.85-.55-.51-.88-1.25-.34-.75-.34-1.8 0-.98.39-1.86.39-.88 1.14-1.54.75-.66 1.88-1.06 1.12-.39 2.59-.39 1.65 0 2.99.54 1.35.54 2.25 1.43Zm15.53 14.18h-3.83v-13.02l-1.37-.22q-.45-.09-.73-.31-.27-.23-.27-.65v-1.56h2.37v-1.18q0-1.37.42-2.45.41-1.09 1.17-1.84.77-.76 1.87-1.17 1.1-.4 2.48-.4 1.1 0 2.05.29l-.08 1.93q-.02.21-.12.34-.11.14-.29.21-.18.07-.41.09-.23.02-.5.02-.68 0-1.21.15-.54.15-.91.51-.37.37-.57.96-.19.6-.19 1.48v1.06h4.14v2.72h-4.02v13.04Zm9.55-14.94.23 1.8q.75-1.43 1.77-2.24 1.02-.82 2.42-.82 1.1 0 1.77.48l-.25 2.87q-.08.28-.23.4-.14.11-.39.11-.23 0-.69-.08-.46-.07-.89-.07-.64 0-1.13.18-.5.19-.9.54-.39.35-.69.84-.31.5-.57 1.13v9.8h-3.83v-15.9h2.25q.59 0 .82.21.23.21.31.75Zm15.22-1.21q1.77 0 3.22.57 1.45.58 2.48 1.63 1.03 1.05 1.59 2.57.56 1.52.56 3.4 0 1.89-.56 3.41-.56 1.52-1.59 2.59-1.03 1.07-2.48 1.64-1.45.57-3.22.57-1.78 0-3.24-.57-1.45-.57-2.48-1.64-1.04-1.07-1.6-2.59-.57-1.52-.57-3.41 0-1.88.57-3.4.56-1.52 1.6-2.57 1.03-1.05 2.48-1.63 1.46-.57 3.24-.57Zm0 13.44q1.99 0 2.94-1.34.95-1.33.95-3.9t-.95-3.92q-.95-1.35-2.94-1.35-2.01 0-2.98 1.35-.97 1.36-.97 3.92 0 2.56.97 3.9.97 1.34 2.98 1.34Zm14.6 2.71h-3.83v-15.9h2.35q.74 0 .97.69l.25 1.18q.42-.46.88-.85.45-.39.97-.67t1.12-.44q.59-.16 1.31-.16 1.5 0 2.47.81.97.82 1.45 2.16.37-.79.93-1.35.56-.57 1.22-.92.67-.36 1.42-.53.75-.17 1.51-.17 1.32 0 2.34.4 1.03.4 1.72 1.18.7.78 1.07 1.89.36 1.12.36 2.56v10.12h-3.83v-10.12q0-1.52-.66-2.29-.67-.77-1.96-.77-.59 0-1.09.21-.5.2-.88.58-.38.38-.6.95-.22.57-.22 1.32v10.12h-3.84v-10.12q0-1.6-.64-2.33-.65-.73-1.89-.73-.84 0-1.56.42-.72.41-1.34 1.12v11.64Zm50.18-11.21q0 2.47-.82 4.53-.83 2.06-2.31 3.55-1.49 1.49-3.58 2.31-2.1.82-4.65.82h-8.55v-22.41h8.55q2.55 0 4.65.83 2.09.83 3.58 2.31 1.48 1.48 2.31 3.54.82 2.06.82 4.52Zm-4.28 0q0-1.84-.49-3.31-.49-1.46-1.41-2.48-.92-1.01-2.23-1.55-1.31-.55-2.95-.55h-4.36v15.78h4.36q1.64 0 2.95-.54 1.31-.54 2.23-1.56.92-1.01 1.41-2.48.49-1.46.49-3.31Zm14.38-4.94q1.77 0 3.22.57 1.45.58 2.48 1.63 1.03 1.05 1.59 2.57.56 1.52.56 3.4 0 1.89-.56 3.41-.56 1.52-1.59 2.59-1.03 1.07-2.48 1.64-1.45.57-3.22.57-1.78 0-3.24-.57-1.45-.57-2.48-1.64-1.04-1.07-1.6-2.59-.57-1.52-.57-3.41 0-1.88.57-3.4.56-1.52 1.6-2.57 1.03-1.05 2.48-1.63 1.46-.57 3.24-.57Zm0 13.44q1.99 0 2.94-1.34.95-1.33.95-3.9t-.95-3.92q-.95-1.35-2.94-1.35-2.01 0-2.98 1.35-.97 1.36-.97 3.92 0 2.56.97 3.9.97 1.34 2.98 1.34Zm17.81-13.44q1.77 0 3.22.57 1.45.58 2.48 1.63 1.03 1.05 1.59 2.57.56 1.52.56 3.4 0 1.89-.56 3.41-.56 1.52-1.59 2.59-1.03 1.07-2.48 1.64-1.45.57-3.22.57-1.78 0-3.24-.57-1.45-.57-2.48-1.64-1.04-1.07-1.6-2.59-.57-1.52-.57-3.41 0-1.88.57-3.4.56-1.52 1.6-2.57 1.03-1.05 2.48-1.63 1.46-.57 3.24-.57Zm0 13.44q1.99 0 2.94-1.34.95-1.33.95-3.9t-.95-3.92q-.95-1.35-2.94-1.35-2.01 0-2.98 1.35-.97 1.36-.97 3.92 0 2.56.97 3.9.97 1.34 2.98 1.34Zm14.6-8.54v7.13q.65.79 1.42 1.11.77.33 1.62.33.88 0 1.59-.32.71-.32 1.2-.99.5-.68.76-1.72.26-1.05.26-2.5 0-2.62-.86-3.79-.87-1.18-2.5-1.18-1.1 0-1.92.51-.82.5-1.57 1.42Zm0-11.78v9.08q.96-1.01 2.13-1.6 1.17-.6 2.68-.6 1.38 0 2.49.54 1.1.54 1.89 1.56.78 1.01 1.2 2.46.42 1.44.42 3.24 0 1.93-.48 3.51-.48 1.59-1.38 2.71-.89 1.12-2.14 1.74-1.26.62-2.79.62-.75 0-1.35-.14-.61-.15-1.12-.42-.51-.26-.93-.64-.43-.38-.82-.84l-.17 1.07q-.09.4-.32.57-.22.17-.61.17h-2.53v-23.03h3.83Zm16.79 13.25h7.22q0-.74-.21-1.4-.21-.66-.62-1.16-.42-.49-1.07-.78-.64-.29-1.49-.29-1.66 0-2.61.95-.96.94-1.22 2.68Zm9.76 2.31h-9.84q.1 1.22.44 2.11.34.9.9 1.48.55.58 1.32.87.77.28 1.7.28.93 0 1.6-.21.68-.22 1.18-.49.5-.26.88-.48.38-.21.74-.21.48 0 .71.35l1.1 1.4q-.63.74-1.42 1.25-.79.5-1.65.8-.86.3-1.75.43-.9.12-1.73.12-1.66 0-3.09-.55-1.42-.55-2.48-1.63-1.05-1.07-1.66-2.66-.6-1.59-.6-3.68 0-1.63.53-3.06.52-1.44 1.51-2.5.98-1.06 2.4-1.68 1.42-.62 3.2-.62 1.5 0 2.78.48 1.27.48 2.18 1.4.92.92 1.43 2.27.52 1.34.52 3.06 0 .86-.18 1.17-.19.3-.72.3Zm4.45-14.94h3.6v8.86q0 1.41-.14 2.77t-.36 2.87h-2.6q-.22-1.51-.36-2.87-.14-1.36-.14-2.77v-8.86Zm-.6 20.3q0-.48.18-.91.18-.44.49-.75.32-.31.75-.49.44-.19.93-.19.49 0 .92.19.43.18.75.49t.5.75q.19.43.19.91 0 .5-.19.92-.18.43-.5.74t-.75.49q-.43.18-.92.18-.49 0-.93-.18-.43-.18-.75-.49-.31-.31-.49-.74-.18-.42-.18-.92Z"/></svg>