<svg xmlns="http://www.w3.org/2000/svg" width="320" height="320" viewBox="0 0 320 320"><rect width="100%" height="100%" fill="#e8c44d"/><path fill="#FFF" d="m134.36 120.96-5.2-8.24q2.72-2.4 5.96-4.56 3.24-2.16 7-3.76 3.76-1.6 8.16-2.52 4.4-.92 9.52-.92 6.96 0 12.68 1.92t9.8 5.48q4.08 3.56 6.32 8.6 2.24 5.04 2.24 11.28 0 6.08-1.76 10.52-1.76 4.44-4.4 7.72-2.64 3.28-5.8 5.68-3.16 2.4-5.96 4.52-2.8 2.12-4.84 4.16t-2.44 4.6l-1.84 11.68h-13.52l-1.36-13.04q-.48-3.76 1.08-6.6t4.16-5.2q2.6-2.36 5.8-4.56 3.2-2.2 6-4.8 2.8-2.6 4.68-5.84 1.88-3.24 1.88-7.72 0-2.88-1.08-5.16-1.08-2.28-3-3.92-1.92-1.64-4.6-2.52-2.68-.88-5.8-.88-4.56 0-7.72 1t-5.36 2.24q-2.2 1.24-3.72 2.24-1.52 1-2.72 1-2.88 0-4.16-2.4Zm9.92 86.08q0-2.48.92-4.72.92-2.24 2.52-3.84 1.6-1.6 3.84-2.56 2.24-.96 4.8-.96 2.56 0 4.76.96 2.2.96 3.84 2.56 1.64 1.6 2.6 3.84.96 2.24.96 4.72 0 2.56-.96 4.76-.96 2.2-2.6 3.8-1.64 1.6-3.84 2.52-2.2.92-4.76.92-2.56 0-4.8-.92-2.24-.92-3.84-2.52-1.6-1.6-2.52-3.8-.92-2.2-.92-4.76Z"/></svg>